<?xml version="1.0" encoding="utf-8"?>
<!-- Generator: Adobe Illustrator 19.0.0, SVG Export Plug-In . SVG Version: 6.00 Build 0)  -->
<svg version="1.1" id="Calque_1" xmlns="http://www.w3.org/2000/svg" xmlns:xlink="http://www.w3.org/1999/xlink" x="0px" y="0px"
	 viewBox="0 0 300 300" style="enable-background:new 0 0 300 300;" xml:space="preserve">
<style type="text/css">
	.st0{fill:#FFFFFF;}
</style>
<g id="XMLID_18_">
	<g id="XMLID_22_">
		<path id="XMLID_111_" d="M291.3,134.9l-8.4-17.9c-0.1,0-0.1,0.1-0.2,0.1c-13.5,6.3-29.6,0.5-35.9-12.9
			c-6.3-13.5-0.5-29.6,12.9-35.9c0.1,0,0.2-0.1,0.2-0.1l-8-17c-13.4,6.2-29.4,0.4-35.7-13c0-0.1-0.1-0.2-0.1-0.2l-195.7,92
			c0.1,0.2,0.2,0.3,0.2,0.5c6.3,13.5,0.5,29.6-12.9,35.9l8,17c13.4-6,29.2-0.2,35.5,13.1c6.3,13.3,0.7,29.2-12.5,35.7L47,250
			c13.5-6.3,29.6-0.5,35.9,12.9l195.7-92c0-0.1-0.1-0.2-0.1-0.2C272.2,157.3,277.9,141.3,291.3,134.9z"/>
		<g id="XMLID_23_">
			<path id="XMLID_110_" class="st0" d="M113,158.9c1.4-0.7,1.6-1.6,1.5-2c0-0.6,0-1.4-0.1-2.3c0-0.9-0.1-2-0.1-2.4
				c0.1-0.5-0.1-1-0.2-1.1c-0.8-1.8-4.1-1.8-6-0.9c-1.7,0.8-1.8,1.9-1.8,2.6c0,1.2,0.5,4.3,1,5.5C108.3,160,111.5,159.6,113,158.9z"
				/>
			<path id="XMLID_100_" class="st0" d="M209.4,102.9c-1.3,0.6-1.9,1.5-1.8,2.6c0,0,0.3,3.9,1,5.5c0.8,1.7,4,1.3,5.5,0.6
				c1.4-0.7,1.6-1.6,1.5-2c0-0.4,0-1.1-0.1-1.8c0-1.1-0.1-2.5,0-2.9l0-0.1c0-0.2,0-0.6-0.2-1C214.6,102,211.3,102,209.4,102.9z"/>
			<path id="XMLID_24_" class="st0" d="M210.5,114.1c-1.3,0.6-2,1.5-1.9,2.5c0.1,2.4,0.4,6.6,1.1,10.8c0,5-0.3,11.3-1.2,14.1
				l-0.1-0.3c-2-5.8-3.3-21.7-3.8-28.5c-0.1-1.6-0.2-2.8-0.3-3.2l0-0.2l-0.2-0.4c-0.9-1.9-4.6-1.3-6.5-0.4c-1.4,0.6-2.1,1.5-2.1,2.6
				c0,0.9,0.2,5.2,0.8,10.7c-1.2-0.2-2.5,0.1-3.9,0.8c-5.6,2.6-7.1,10.5-6.2,17.1c0,4-0.2,7.3-0.5,9.7c-0.3,2-0.6,3.1-0.8,3.6
				c0-0.1-0.1-0.1-0.1-0.2c-2-4.6-3.1-17.8-3.3-20.8l-0.1-0.4l-0.1-0.2c-0.9-1.8-4.1-1.7-6.1-0.8c-1.3,0.6-2,1.6-1.9,2.6
				c0,1.8,0.3,5.2,0.8,8.7c0.5,5.6,0.5,9.7,0.2,12.6c-0.3,2.3-0.7,3.5-1,4.2c0-0.1-0.1-0.2-0.1-0.3c-2-4.6-3.1-17.8-3.3-20.8
				l-0.1-0.4l-0.1-0.2c-0.8-1.8-4.2-1.7-6.1-0.8c-1.2,0.6-1.9,1.5-1.9,2.6c0,2,0.4,6.7,1,11c-0.2,7.9-1.4,13.3-3.7,15.7
				c-0.4,0.3-0.8,0.6-1,0.7l-0.7,0.3c-2.2,0.5-3.8-2.4-4.4-3.7c-0.2-0.4-0.3-0.7-0.4-1.1c0.4-0.1,0.8-0.2,1.2-0.4
				c4.2-2,6.5-10.9,4.2-16.2l-0.1-0.1c-1.3-2.9-4.4-3.8-7.9-2.2l-0.3,0.1c-5.3,2.5-6.7,9.5-6.3,15.3c0,0.4,0.1,0.8,0.2,1.4
				c0.1,8.3,0.1,12.2-0.5,13.6c-1.1-2.3-1.9-7.5-2.7-12c-0.5-2.8-0.9-5.4-1.4-7.4l-0.4-1c-1-2.2-3.4-3-5.8-1.9
				c-2.9,1.4-4.3,5.4-5.3,9.7c-0.1-1.2-0.2-2.3-0.2-2.7l-0.1-0.5l-0.1-0.2c-0.9-1.8-4.2-1.7-6.2-0.7c-1.3,0.6-2,1.6-1.9,2.6
				c0.2,2.3,0.7,6.4,1.3,10.5c0.1,9-0.6,13.5-1.3,14.9c-1.7-3.7-3.2-17.6-3.6-21.1l-0.1-0.4l-0.1-0.2c-0.8-1.8-4.2-1.7-6.1-0.8
				c-1.2,0.6-1.9,1.5-1.9,2.6c0.1,2.4,0.5,6.3,1,10.2c-1.4,8.5-5.3,19.3-11.9,22.4c-3.1,1.4-5.1,0.5-6.9-3.2
				c-4.4-9.3-4.6-30,2.9-35.6c0.2-0.1,0.3-0.2,0.5-0.3c0.3-0.2,0.5-0.4,0.8-0.5c1.2-0.5,1.6-0.1,2,0.7c2.2,4.8-0.3,18.4-3,19.9
				c-0.9,0.4-1.3,1.5-0.9,2.4l0.1,0.1c1.4,2.1,5.6,1.8,7.9,0.7c1.1-0.5,1.9-1.2,2.4-2.1c2.8-4.7,3-15.5,0.2-21.3
				c-2.7-5.8-8-7.5-14.2-4.6c-13.3,6.4-14.6,29.5-9.1,41.4c4.7,10.1,13.2,10.4,19.1,7.7l0.1-0.1c7.9-3.7,11.2-11.1,12.5-16.9
				c0,0.1,0.1,0.1,0.1,0.2c0.5,1,1.3,2.4,2.3,3.1c2.1,1.6,4.9,0.3,6-0.2l0.9-0.4c1.3-0.7,2.2-2.4,2.8-5.3c0.1,0.2,0.1,0.3,0.2,0.5
				c0.4,0.8,1.9,2.5,6.1,0.5l0.3-0.2c1.6-0.7,1.4-1.9,1.1-2.4c-0.6-1.5-1.2-4.7-1.7-7.6c0.1-1.2,0.9-9.2,2.4-14.3c0,0,0,0,0,0
				c0.6,4.3,1.8,12.2,3.5,16c2,4.3,4.8,3.7,7.4,2.5c0,0,0,0,0,0l1.9-1c2.1-1.1,2.8-3.5,2.9-8.2c2.7,3,6.4,3.6,11,1.7l0.7-0.3
				c0.9-0.4,1.8-1,2.5-1.6c1.8-1.8,3.1-4.5,3.9-8.2c0,0.1,0.1,0.2,0.1,0.3c0.7,1.5,1.4,2.4,2.2,2.9c2.1,1.6,4.9,0.3,6-0.2l0.9-0.4
				c1.6-0.8,2.6-3,3.1-6.6c0.5,0.8,1,1.4,1.6,1.8c2.1,1.6,4.9,0.3,6-0.2l0.9-0.4c1.5-0.8,2.4-2.9,3-6.5c0.1-0.7,0.2-1.4,0.3-2.1
				c2,2.5,4.7,3.3,7.5,2.1c2-0.9,3.3-3,4.1-6.1c0.5,1,1.1,1.8,1.8,2.3c2,1.7,4.5,0.5,5.7,0l0.9-0.4c0.9-0.4,1.7-1.4,2.2-3
				c0.4-1.1,0.7-2.5,1-4.3c0.6,1,1.2,1.8,2,2.4c2,1.4,4.4,0.5,6.5-0.5c0.8-0.4,1.1-1.4,0.7-2.3c-0.4-0.8-1-1.1-1.5-1.1
				c0-0.1-0.1-0.2-0.2-0.3c-1.8-3.9-3.4-19.4-3.5-21.1l-0.1-0.5l-0.1-0.2C215.7,113,212.4,113.1,210.5,114.1z M196.8,128.6
				c0.6,1.4,0.9,3.4,1,4.2l0,0c0.2,3.1-0.7,10-1.8,10.8c-0.1-0.1-0.3-0.3-0.5-0.8c-1.8-3.9-1.9-14,0.4-15.1
				C196,127.6,196.3,127.5,196.8,128.6z M151.7,156.5c-0.1-1.4,0-3,0.2-4.6c0.5-2.8,1.4-4.6,1.9-5
				C154.6,148.7,153.7,155,151.7,156.5z"/>
		</g>
	</g>
	<path id="XMLID_3_" class="st0" d="M85,244.7l-1-0.9c-6.4-5.7-14.2-9.3-22.6-10.4l-2.9-0.4l1.4-2.6c3.4-6.2,5.3-13.3,5.3-20.4
		c0-20.9-15-38.5-35.7-41.8l-3.1-0.5l1.8-2.6c4.9-7.2,6.6-18.2,6.6-26V138l1.2-0.5l174.2-80.8l1,0.9c6,5.3,13.4,8.8,21.3,10l3.1,0.5
		l-1.8,2.6c-4.7,7-7.2,15.2-7.2,23.7c0,21.2,15.8,39.2,36.8,41.9l2.9,0.4l-1.4,2.6c-3.4,6.2-5.3,13.3-5.3,20.4c0,0.7,0,1.3,0.1,2
		l0.1,1.3L85,244.7z M64.7,230c7.7,1.5,14.9,4.9,21,10l169.8-79.6c0-0.3,0-0.5,0-0.8c0-6.9,1.5-13.7,4.5-19.9
		c-21.6-4.2-37.5-23.2-37.5-45.4c0-8.3,2.2-16.3,6.3-23.4c-7.1-1.6-13.7-4.9-19.4-9.5L38.8,140.5c-0.2,7.4-1.8,17-5.8,24.4
		c21.1,4.7,36.1,23.2,36.1,45.2C69.1,217,67.6,223.8,64.7,230z"/>
</g>
</svg>
